<svg version="1.1" id="Layer_1" xmlns="http://www.w3.org/2000/svg" xmlns:xlink="http://www.w3.org/1999/xlink" x="0px" y="0px"
	 width="10" height="10" viewBox="0 0 848 1024" enable-background="new 0 0 848 1024" xml:space="preserve">
<path fill="#FFFFFF" opacity="1.000000" stroke="none" 
	d="
M460.711975,770.947815 
	C371.550415,774.395325 292.507599,748.594421 224.739029,691.110107 
	C166.287460,641.528931 129.187927,578.584229 113.013054,503.574554 
	C107.380913,477.455963 104.554520,450.893036 105.936256,424.207886 
	C111.956253,307.945465 162.710281,216.509613 259.457550,151.326874 
	C299.272400,124.501923 343.421204,107.720238 390.891815,101.084015 
	C497.688141,86.154305 591.987915,114.214790 671.758728,187.107056 
	C727.289795,237.849823 761.004150,301.159119 774.510620,375.263214 
	C779.288879,401.479340 780.723450,427.911224 779.060791,454.330994 
	C774.352051,529.153687 747.964661,595.588928 699.195679,652.719360 
	C651.280212,708.850037 591.205078,745.392090 519.401428,762.530396 
	C500.264801,767.097961 480.805969,769.618713 460.711975,770.947815 
M300.144104,354.051666 
	C293.670563,352.166962 289.593689,347.756836 287.694031,341.488007 
	C286.684998,338.158203 284.962158,337.146545 281.581421,337.234894 
	C273.088745,337.456879 264.586090,337.308838 256.087494,337.279816 
	C254.067230,337.272888 251.732758,337.354614 251.732605,334.476807 
	C251.732269,327.999542 250.927475,321.480408 252.358887,315.057068 
	C255.133377,302.606781 263.688324,294.481415 274.895813,290.919464 
	C286.282410,287.300568 291.809753,279.698578 295.996704,269.817169 
	C296.774445,267.981598 297.637512,266.137421 298.761749,264.504059 
	C300.365540,262.174011 300.726318,259.687805 300.722260,256.945923 
	C300.673157,223.951141 300.698608,190.956253 300.645386,157.961487 
	C300.642609,156.250122 301.356445,154.280823 299.584778,152.742783 
	C298.963654,152.901672 298.298584,152.985870 297.706818,153.240433 
	C296.331665,153.831909 294.959717,154.445862 293.642395,155.154617 
	C252.356155,177.368774 217.303513,207.051514 189.621841,244.815613 
	C137.900269,315.375641 117.692886,394.244781 130.254761,481.020691 
	C139.441162,544.479126 165.579727,600.484924 209.402954,647.108398 
	C286.560760,729.196472 381.882294,762.556091 493.352112,746.253967 
	C558.499451,736.726318 614.948059,707.509216 662.153687,661.637207 
	C721.299683,604.162231 753.189697,533.685669 758.513977,451.444489 
	C760.293884,423.951202 758.377319,396.472534 752.341980,369.523010 
	C731.545227,276.659393 680.055054,205.944458 597.543945,158.532791 
	C541.362671,126.250488 480.479370,113.854454 415.900909,119.050163 
	C379.496368,121.979111 344.827179,131.197662 311.604584,146.231476 
	C308.318085,147.718674 307.325775,149.616608 307.335480,153.079895 
	C307.433167,187.907455 307.377289,222.735428 307.361328,257.563293 
	C307.360413,259.565552 307.547699,261.407013 308.624542,263.286377 
	C311.769531,268.774994 314.838806,274.328094 317.533539,280.046417 
	C319.431122,284.073181 322.055115,286.360199 326.406738,287.876648 
	C350.242554,296.182983 358.766296,309.236298 356.647217,332.477753 
	C356.273987,336.571228 354.656281,337.436493 351.047485,337.359985 
	C342.885773,337.186890 334.716888,337.376434 326.553009,337.265381 
	C323.573395,337.224854 321.826569,337.845795 320.701660,341.149231 
	C317.305084,351.123810 311.639557,354.635529 300.144104,354.051666 
M258.347107,327.984863 
	C258.519806,330.611969 260.446106,330.598755 262.327209,330.598969 
	C290.122986,330.602081 317.918823,330.581390 345.714539,330.622314 
	C348.324036,330.626129 349.574188,329.867584 349.805969,326.985168 
	C350.734894,315.432770 346.680359,306.380005 336.659241,300.399567 
	C316.651123,288.458923 296.161102,287.688507 275.310211,298.199707 
	C263.435242,304.186066 257.199280,313.495911 258.347107,327.984863 
z"/>
<path fill="#000000" opacity="1.000000" stroke="none" 
	d="
M308.672668,817.650513 
	C314.881256,811.253540 321.549225,807.310364 331.359955,810.641724 
	C320.453979,819.917908 309.894135,828.899597 298.641510,838.470581 
	C309.658295,850.202759 320.403717,861.645874 331.832184,873.816467 
	C334.493378,867.760376 336.899780,862.380615 339.227997,856.967285 
	C345.414673,842.582703 351.609863,828.201477 357.696777,813.774658 
	C358.853638,811.032715 360.286560,809.087097 363.560364,809.637695 
	C367.160828,810.243286 371.537537,807.731567 373.882812,813.098328 
	C382.619690,833.091064 391.614014,852.971375 400.510529,872.894348 
	C400.982574,873.951355 401.605652,874.991882 400.947540,876.198425 
	C393.118042,878.637878 390.033722,877.943054 387.964569,870.568481 
	C384.796417,859.277100 378.170349,856.961426 366.959656,856.625122 
	C354.068970,856.238342 346.521271,859.579346 343.886261,872.397034 
	C343.093658,876.252625 340.369995,876.948730 336.547241,877.428833 
	C325.451996,878.822083 317.091614,875.567871 310.401367,866.330566 
	C305.940002,860.170776 300.149902,854.954102 294.790955,849.475342 
	C293.216064,847.865173 291.954315,844.328369 289.002869,846.090881 
	C285.609100,848.117554 281.165527,849.761353 281.035034,854.836060 
	C280.893677,860.332397 280.854675,865.839172 281.027008,871.333313 
	C281.159119,875.544800 279.617371,877.283447 275.203125,877.241821 
	C270.963654,877.201782 269.757935,875.492615 269.784454,871.519836 
	C269.910004,852.687500 269.921906,833.853210 269.780670,815.021118 
	C269.750000,810.934937 271.106995,809.518616 275.271637,809.503113 
	C279.573608,809.487183 281.224945,810.774963 281.073059,815.212341 
	C280.796539,823.290771 280.994537,831.385437 280.994537,840.769592 
	C290.865784,832.528442 299.635956,825.206543 308.672668,817.650513 
M366.926392,822.198975 
	C366.498749,821.599365 366.473175,820.556335 364.967987,820.779114 
	C361.531158,829.336426 358.035248,838.040833 354.369110,847.169067 
	C362.443420,847.169067 369.729889,847.169067 377.708679,847.169067 
	C374.020691,838.576111 370.625641,830.665649 366.926392,822.198975 
z"/>
<path fill="#000000" opacity="1.000000" stroke="none" 
	d="
M472.298706,873.735718 
	C469.920807,878.287170 462.139740,878.550476 458.944641,874.434082 
	C454.554749,868.778259 450.375580,862.956360 446.189484,857.145508 
	C438.130310,845.958252 430.129608,834.728821 421.331360,822.436523 
	C421.331360,830.342163 421.331635,837.075867 421.331360,843.809631 
	C421.330963,853.304688 421.244812,862.800964 421.376068,872.294189 
	C421.421631,875.588440 420.477325,877.233826 416.875763,877.155396 
	C413.579315,877.083618 411.549927,876.497131 411.578094,872.478882 
	C411.714752,852.989929 411.690674,833.499451 411.613861,814.009949 
	C411.601379,810.856140 412.672363,809.755249 415.922302,809.526794 
	C421.362885,809.144287 425.060394,810.596375 428.412201,815.397583 
	C438.419037,829.731750 449.059021,843.624023 459.464569,857.679382 
	C460.218445,858.697754 461.075653,859.639648 462.639771,861.529114 
	C462.639771,850.456909 462.639191,840.527710 462.639984,830.598511 
	C462.640411,825.267944 462.783936,819.932434 462.595001,814.608643 
	C462.470459,811.098572 463.471405,809.562561 467.337006,809.521912 
	C471.386536,809.479431 472.428467,810.991882 472.399902,814.794922 
	C472.253662,834.283752 472.323914,853.774231 472.298706,873.735718 
z"/>
<path fill="#000000" opacity="1.000000" stroke="none" 
	d="
M533.316040,858.338501 
	C523.157104,856.144958 513.188416,857.452637 503.256012,857.366150 
	C501.484497,857.350769 500.971527,859.115540 500.382721,860.476318 
	C498.928558,863.837036 497.507477,867.212524 496.109680,870.597107 
	C493.172302,877.709656 491.161865,878.609253 483.431702,876.177246 
	C482.533051,874.418274 483.700256,872.978699 484.323547,871.522034 
	C492.575287,852.238098 500.901733,832.986145 509.119934,813.688049 
	C510.293701,810.931885 511.796478,809.131409 515.042297,809.638733 
	C518.675659,810.206482 523.006104,807.922485 525.329163,813.233337 
	C534.001099,833.058533 542.946899,852.763794 551.755859,872.529358 
	C552.212036,873.552856 552.352234,874.717102 552.630127,875.779663 
	C545.785217,878.816650 542.430237,877.641174 539.466370,871.305237 
	C537.492737,867.086243 535.544922,862.855164 533.316040,858.338501 
M523.128845,833.293701 
	C521.172424,828.892578 519.216064,824.491516 516.896240,819.272705 
	C512.891052,829.204041 509.319916,838.059204 505.676941,847.092529 
	C513.658813,847.092529 520.957397,847.092529 528.871155,847.092529 
	C526.862976,842.240540 525.154907,838.113647 523.128845,833.293701 
z"/>
<path fill="#000000" opacity="1.000000" stroke="none" 
	d="
M616.979187,839.629883 
	C612.693359,847.340088 605.814758,849.856628 598.003296,850.237488 
	C591.359131,850.561523 584.685730,850.437378 578.029480,850.303833 
	C574.611755,850.235229 573.222839,851.540527 573.309021,854.994873 
	C573.458496,860.984253 573.199707,866.984436 573.372559,872.972534 
	C573.487061,876.939026 571.107910,877.160339 568.191772,877.114624 
	C565.396729,877.070740 562.738586,877.136353 562.748596,873.142456 
	C562.798645,853.164795 562.797302,833.187012 562.776550,813.209229 
	C562.773926,810.680237 563.897644,809.623169 566.401672,809.639221 
	C577.888000,809.712830 589.410950,809.160095 600.852234,809.896912 
	C615.844543,810.862488 623.030334,824.365479 616.979187,839.629883 
M573.476685,838.866760 
	C573.954285,840.713806 575.425964,840.982361 576.979248,840.973328 
	C584.125305,840.931641 591.288940,841.137390 598.411743,840.696472 
	C604.576599,840.314880 608.211487,836.243896 608.592590,830.374084 
	C608.947510,824.907532 605.348083,820.459473 599.341309,819.156494 
	C591.775146,817.515198 584.099243,818.559387 576.473145,818.407288 
	C573.712341,818.352173 573.364624,820.349670 573.370544,822.524780 
	C573.384460,827.678955 573.378296,832.833130 573.476685,838.866760 
z"/>
<path fill="#000000" opacity="1.000000" stroke="none" 
	d="
M458.000000,897.889038 
	C421.351044,897.768738 385.202087,897.652588 349.053192,897.516724 
	C347.483765,897.510803 345.237183,898.033569 345.368378,895.498596 
	C345.472473,893.486816 347.520660,893.858765 348.955048,893.759155 
	C349.949951,893.690186 350.953491,893.744629 351.953156,893.744629 
	C412.100159,893.746948 472.247192,893.731262 532.394043,893.825195 
	C534.534607,893.828491 538.491638,892.330078 538.369141,895.962708 
	C538.267334,898.981873 534.568787,897.454590 532.462463,897.470947 
	C507.808685,897.663147 483.154266,897.764343 458.000000,897.889038 
z"/>
<path fill="#000000" opacity="1.000000" stroke="none" 
	d="
M242.048920,618.192993 
	C219.802032,611.652954 201.685867,599.992615 189.424576,580.329590 
	C180.990875,566.804810 176.790009,551.851135 174.608322,536.166687 
	C172.995743,524.573486 172.569244,512.952637 172.804962,501.294373 
	C172.873245,497.917236 171.776108,496.279236 168.444702,495.252594 
	C158.952438,492.327362 152.745651,482.758881 154.141037,473.857025 
	C155.891785,462.688141 163.545441,455.789246 174.509583,455.704803 
	C185.674576,455.618805 196.843674,455.836578 208.005020,455.617737 
	C212.234406,455.534821 213.411850,457.160248 213.379456,461.177124 
	C213.235672,479.007629 213.160110,496.842560 213.416504,514.670776 
	C213.555222,524.314575 214.793243,533.876343 217.272934,543.267456 
	C222.584686,563.384216 235.896347,574.867676 255.699890,579.709045 
	C266.307220,582.302185 277.058685,582.993958 287.909149,582.993408 
	C391.400085,582.988342 494.891022,582.996948 598.381958,582.987366 
	C608.721619,582.986450 618.941589,582.141846 629.116394,579.951538 
	C651.871460,575.053162 665.253479,561.316589 669.638611,538.561401 
	C671.442627,529.200012 671.942566,519.747192 671.949829,510.249695 
	C671.962280,494.084473 672.042297,477.918213 671.876282,461.754669 
	C671.831421,457.391968 672.993103,455.465271 677.797729,455.598907 
	C688.954834,455.909271 700.126892,455.628967 711.291870,455.718781 
	C721.176331,455.798279 729.562561,462.824402 731.169922,472.166016 
	C732.907593,482.264923 727.450256,491.984467 717.738586,495.054871 
	C713.957397,496.250275 712.868408,498.154846 712.882507,501.855286 
	C712.947876,519.026733 712.289490,536.174927 707.975586,552.906128 
	C698.149109,591.017456 672.758606,612.346924 634.985657,620.342346 
	C622.688660,622.945190 610.228271,623.309570 597.768127,623.940674 
	C595.810181,624.039917 593.751160,623.548401 591.627441,625.087036 
	C592.479858,630.695557 595.110413,635.916077 596.710510,641.429443 
	C599.232178,650.118591 594.435608,656.996155 586.246094,656.331665 
	C581.496521,655.946350 578.745728,653.076965 577.241455,648.817810 
	C575.134216,642.851685 572.705200,636.959961 571.154358,630.848511 
	C569.807007,625.539368 567.179626,623.827820 561.706970,623.840454 
	C489.713684,624.006714 417.719879,623.946838 345.726227,623.942383 
	C337.726990,623.941833 329.725830,624.033325 321.729340,623.882263 
	C318.184052,623.815369 316.269928,625.174194 315.208069,628.610474 
	C313.144714,635.287720 310.800171,641.881836 308.432922,648.460266 
	C306.120880,654.885132 300.475525,657.863770 294.706146,655.888489 
	C289.244476,654.018494 286.761780,648.314087 288.727234,641.932251 
	C290.391541,636.528137 292.168793,631.158752 293.866333,625.764709 
	C293.952118,625.492188 293.755646,625.130737 293.573578,624.235413 
	C276.513916,623.333435 259.165253,623.275940 242.048920,618.192993 
z"/>
<path fill="#000000" opacity="1.000000" stroke="none" 
	d="
M423.998260,574.264404 
	C375.166656,574.274963 326.834747,574.300598 278.502869,574.290283 
	C248.182526,574.283813 224.170776,550.664307 223.815674,520.277710 
	C223.599518,501.780762 223.649796,483.278381 223.797119,464.780121 
	C223.971344,442.903168 239.915131,426.115997 261.882721,425.932312 
	C309.377808,425.535095 356.880737,425.522949 404.375732,425.918671 
	C426.315155,426.101471 441.227051,442.212921 441.258087,464.262329 
	C441.306641,498.761261 441.204285,533.260742 441.402008,567.758667 
	C441.430237,572.684448 440.205109,574.890320 434.990173,574.337341 
	C431.529114,573.970337 427.997833,574.265503 423.998260,574.264404 
z"/>
<path fill="#000000" opacity="1.000000" stroke="none" 
	d="
M553.000000,574.287598 
	C518.516479,574.281677 484.532349,574.180725 450.549957,574.374207 
	C445.598785,574.402344 444.387268,572.732605 444.414276,568.057861 
	C444.614716,533.409485 445.058929,498.751160 444.430939,464.114044 
	C444.097137,445.700043 457.005524,425.867462 482.279724,425.808044 
	C528.756958,425.698822 575.234924,425.687561 621.712036,425.820526 
	C641.799133,425.877991 656.636902,437.706329 660.751770,456.437225 
	C661.175354,458.365326 661.310608,460.390808 661.315308,462.371704 
	C661.362000,482.028748 661.404846,501.686096 661.347412,521.343018 
	C661.263245,550.149109 637.275391,574.164001 608.472900,574.274231 
	C590.148865,574.344360 571.824341,574.287354 553.000000,574.287598 
z"/>
</svg>