<svg id="icons" xmlns="http://www.w3.org/2000/svg" viewBox="0 0 100 100"><defs><style>.cls-1{fill:#909090;}.cls-2{fill:none;stroke:#00a3e0;stroke-miterlimit:10;stroke-width:4px;}</style></defs><title>microsoft-linq</title><g id="microsoft-linq"><path class="cls-1" d="M28.44,54.225h7.332V57H24.987V40.239H28.44Z"/><path class="cls-1" d="M41.424,57H37.971V40.239h3.453Z"/><path class="cls-1" d="M58.252,57H54.8L48.078,45.971V57H44.625V40.239h3.453l6.734,11.05V40.239h3.44Z"/><path class="cls-1" d="M75.013,49a10.107,10.107,0,0,1-.759,4.081,7.023,7.023,0,0,1-2.107,2.78l2.786,2.187-2.2,1.945-3.568-2.866a7.567,7.567,0,0,1-1.267.1,6.979,6.979,0,0,1-3.718-1,6.655,6.655,0,0,1-2.532-2.862,9.837,9.837,0,0,1-.91-4.276v-.828a10.069,10.069,0,0,1,.893-4.358,6.647,6.647,0,0,1,2.52-2.889,7.4,7.4,0,0,1,7.448,0A6.649,6.649,0,0,1,74.121,43.9a10.056,10.056,0,0,1,.892,4.347Zm-3.5-.76a7.055,7.055,0,0,0-.943-4.005,3.336,3.336,0,0,0-5.376-.017,6.977,6.977,0,0,0-.955,3.966V49a7.149,7.149,0,0,0,.944,3.984,3.306,3.306,0,0,0,5.387.051,7.088,7.088,0,0,0,.943-3.977Z"/><circle class="cls-2" cx="50" cy="50" r="34"/></g></svg>