<svg width="50" height="51" viewBox="0 0 50 51" fill="none" xmlns="http://www.w3.org/2000/svg">
<path d="M48.136 15.8206C49.1035 18.2239 49.7215 20.8112 49.9255 23.5167L49.4269 23.5543C49.4753 24.1963 49.5 24.8452 49.5 25.5C49.5 26.1548 49.4753 26.8037 49.4269 27.4457L49.9255 27.4833C49.5107 32.9841 47.3847 37.9961 44.0896 41.9664L43.7048 41.6471C41.2183 44.6431 38.0539 47.033 34.4547 48.5706L34.6511 49.0304C32.2609 50.0516 29.6821 50.7049 26.9829 50.921L26.943 50.4226C26.3021 50.4739 25.6541 50.5 25 50.5C24.3459 50.5 23.6979 50.4739 23.057 50.4226L23.0171 50.921C17.5532 50.4836 12.583 48.2546 8.67083 44.8095L9.00127 44.4343C6.10702 41.8856 3.80307 38.6575 2.3278 34.9927L1.86397 35.1794C0.896524 32.7761 0.278535 30.1888 0.0744931 27.4833L0.573077 27.4457C0.524662 26.8037 0.5 26.1548 0.5 25.5C0.5 24.8452 0.524662 24.1963 0.573077 23.5543L0.074493 23.5167C0.489341 18.0159 2.61533 13.0039 5.91041 9.03359L6.29516 9.35291C8.78166 6.35685 11.9461 3.96702 15.5453 2.42935L15.3489 1.96956C17.7391 0.948391 20.3179 0.295083 23.0171 0.0790399L23.057 0.577446C23.6979 0.526143 24.3459 0.5 25 0.5C25.6541 0.5 26.3021 0.526143 26.943 0.577446L26.9829 0.0790401C32.4468 0.516365 37.417 2.74542 41.3292 6.19048L40.9987 6.56573C43.893 9.11442 46.1969 12.3425 47.6722 16.0073L48.136 15.8206Z" fill="#312C26" stroke="#C6A98B" stroke-linejoin="round" stroke-dasharray="6 12 18 24"/>
</svg>
