<?xml version="1.0" standalone="no"?>

<svg version="1.0" xmlns="http://www.w3.org/2000/svg"
 width="1920.000000pt" height="1440.000000pt" viewBox="0 0 1920.000000 1440.000000"
 preserveAspectRatio="xMidYMid meet">

<g transform="translate(0.000000,1440.000000) scale(0.100000,-0.100000)"
fill="#000000" stroke="none">
<path d="M9472 12688 c-99 -149 -117 -234 -68 -325 16 -28 41 -63 56 -78 l27
-25 47 41 c71 63 90 107 83 200 -4 58 -14 98 -43 167 -22 51 -42 92 -46 92 -4
0 -29 -33 -56 -72z"/>
<path d="M9878 12518 c-55 -15 -121 -77 -151 -145 -40 -91 -40 -94 22 -125 80
-41 166 -40 232 3 51 32 122 109 178 192 18 27 31 51 28 53 -10 10 -164 33
-217 33 -30 -1 -72 -6 -92 -11z"/>
<path d="M8974 12315 c-4 -11 -20 -53 -36 -94 -61 -156 -76 -301 -40 -383 25
-58 83 -122 140 -155 l45 -27 34 39 c86 100 114 228 73 337 -26 69 -100 185
-163 253 -41 45 -46 48 -53 30z"/>
<path d="M9560 12212 c-41 -21 -69 -48 -122 -117 -156 -202 -264 -394 -298
-528 -28 -111 -28 -316 -1 -502 18 -117 27 -152 57 -212 48 -92 44 -113 -43
-262 -37 -64 -80 -141 -95 -171 -15 -30 -65 -95 -110 -145 -141 -153 -539
-543 -543 -531 -2 6 -31 90 -64 187 -109 316 -168 442 -271 580 -103 137 -273
290 -385 347 -33 17 -85 51 -115 76 -30 25 -78 57 -106 70 -44 21 -54 31 -77
83 -14 32 -31 90 -37 128 -18 106 -50 223 -66 236 -30 24 -37 -5 -20 -73 9
-36 20 -99 26 -140 22 -179 57 -255 138 -300 29 -17 77 -52 106 -78 28 -27 79
-64 113 -84 177 -104 376 -350 473 -587 38 -90 100 -285 100 -312 0 -10 12
-56 26 -101 23 -75 25 -94 21 -212 -2 -71 -11 -160 -20 -199 -45 -193 16 -556
132 -795 67 -138 176 -294 249 -356 101 -85 107 -105 18 -55 -28 16 -78 38
-111 49 -99 34 -353 100 -469 122 -113 22 -346 94 -478 149 -58 24 -82 41 -97
64 -11 18 -40 103 -65 189 -41 142 -73 232 -181 508 -18 47 -38 110 -45 140
-27 118 -99 220 -135 190 -20 -17 -19 -59 4 -111 11 -24 34 -96 51 -159 17
-63 39 -138 49 -165 11 -28 22 -66 25 -85 3 -19 18 -75 34 -125 32 -97 45
-155 36 -155 -10 0 -68 44 -123 94 -68 61 -139 94 -244 111 -137 23 -174 40
-252 119 -99 100 -155 175 -155 208 0 15 -15 65 -34 110 -18 46 -41 106 -49
133 -19 59 -62 318 -76 460 -17 163 -45 226 -157 341 l-79 80 30 49 c26 42 30
58 30 119 0 64 -4 78 -38 141 -49 87 -86 137 -97 130 -14 -9 -57 -153 -65
-218 -5 -49 -3 -65 19 -114 15 -31 24 -58 21 -61 -2 -3 -32 13 -66 36 -54 37
-89 45 -89 21 0 -17 84 -85 148 -120 169 -92 262 -228 262 -383 0 -34 7 -110
15 -171 8 -60 20 -150 25 -198 12 -99 39 -206 75 -296 14 -33 25 -74 25 -91 0
-38 18 -73 86 -170 111 -159 228 -240 397 -273 83 -17 160 -55 177 -88 6 -10
37 -39 69 -62 33 -23 78 -67 101 -96 24 -30 84 -95 135 -145 98 -97 177 -145
345 -206 41 -15 107 -40 145 -54 39 -15 133 -45 210 -67 168 -47 402 -137 471
-180 82 -52 152 -118 196 -183 22 -33 73 -95 113 -136 126 -132 176 -223 219
-403 14 -60 26 -113 26 -118 0 -21 -83 38 -131 93 -61 71 -148 131 -249 173
-136 58 -218 103 -225 125 -4 12 -20 36 -36 55 -31 35 -34 51 -44 190 -3 43
-9 83 -14 88 -5 5 -23 7 -42 5 -39 -4 -46 -21 -48 -110 -1 -32 -5 -58 -11 -58
-5 0 -10 8 -10 18 0 31 -40 83 -74 97 -19 8 -52 17 -75 21 l-41 6 21 -61 c12
-35 35 -77 55 -97 30 -33 38 -36 78 -32 l46 3 -2 -35 c-1 -42 9 -76 32 -110 9
-14 23 -43 30 -65 7 -22 25 -57 41 -77 l29 -36 -45 -18 c-56 -21 -93 -15 -181
28 -58 28 -73 41 -99 85 -106 185 -202 337 -246 391 -31 38 -88 89 -152 134
-165 117 -262 148 -464 148 l-134 0 6 48 c8 66 -15 107 -85 149 -30 18 -59 33
-64 33 -13 0 4 -110 24 -157 13 -29 29 -47 52 -58 32 -15 31 -15 -42 -10 -169
11 -228 52 -378 257 -39 53 -100 126 -135 162 -52 54 -73 67 -122 81 -57 17
-153 17 -196 0 -14 -5 -18 4 -24 52 -18 152 -95 221 -287 258 -37 7 -69 10
-72 8 -14 -14 64 -208 110 -275 29 -41 96 -78 146 -79 32 -1 32 -1 -20 -26
-33 -15 -86 -28 -145 -35 l-93 -11 -75 33 c-41 19 -98 49 -128 68 -61 38 -103
46 -109 20 -5 -28 57 -84 153 -139 69 -40 106 -54 159 -62 96 -14 203 3 313
49 73 31 100 37 158 38 90 0 120 -16 188 -102 70 -87 167 -227 167 -239 0 -21
-55 -33 -144 -33 -171 0 -344 -65 -463 -174 l-32 -29 -11 44 c-27 100 -79 162
-154 184 -53 16 -256 21 -256 7 0 -19 103 -179 138 -215 72 -74 144 -90 247
-52 11 4 -5 -18 -36 -48 -68 -68 -109 -81 -234 -75 -85 4 -96 7 -194 56 -94
47 -151 64 -151 45 0 -5 30 -22 68 -40 37 -18 92 -46 122 -63 40 -22 78 -33
140 -41 153 -19 212 3 326 120 67 71 94 90 179 132 117 57 227 80 343 72 55
-4 86 -1 125 12 l52 18 60 -42 c102 -72 159 -83 480 -100 145 -8 168 -12 242
-40 46 -18 85 -37 88 -42 4 -5 39 -34 80 -63 90 -67 131 -124 258 -356 106
-192 138 -232 236 -284 l63 -34 -65 -11 c-74 -13 -234 -84 -292 -131 -69 -56
-151 -86 -280 -104 l-40 -5 -2 60 c-3 80 -31 129 -93 163 -45 24 -147 53 -156
43 -8 -7 37 -140 61 -183 26 -44 56 -69 96 -78 13 -2 -21 -3 -76 -1 -87 2
-110 7 -169 34 -37 17 -97 52 -134 79 -70 50 -222 146 -272 172 -31 16 -34 22
-45 82 -12 72 -99 137 -206 154 l-42 7 7 -29 c21 -84 29 -106 59 -151 38 -57
85 -83 148 -83 34 0 51 -5 65 -21 10 -12 53 -44 94 -72 41 -28 113 -80 160
-115 150 -115 262 -152 462 -152 175 0 298 30 395 97 36 25 85 51 107 59 23 8
57 22 76 31 100 47 367 52 490 9 76 -26 158 -76 201 -122 21 -22 24 -34 22
-92 -5 -152 -9 -167 -76 -250 -34 -42 -84 -111 -111 -152 -27 -41 -54 -78 -60
-82 -6 -4 -60 -8 -121 -8 -60 0 -141 -5 -180 -11 -38 -5 -167 -14 -285 -19
-210 -8 -293 -17 -415 -45 -33 -8 -106 -16 -161 -19 -56 -3 -131 -10 -167 -16
-78 -14 -168 -9 -257 13 -99 24 -243 37 -284 26 -19 -5 -62 -28 -97 -51 -70
-47 -59 -48 -224 13 -85 31 -98 33 -215 33 -78 0 -178 -9 -263 -22 -161 -26
-227 -27 -318 -8 -81 17 -136 44 -192 94 -38 34 -39 34 -19 7 28 -36 131 -101
183 -115 103 -28 188 -30 387 -9 159 16 209 18 265 9 64 -10 191 -53 246 -84
35 -19 12 -29 -84 -37 -80 -7 -188 4 -360 38 -44 8 -161 19 -260 23 -224 11
-707 -5 -744 -24 -37 -19 -193 -54 -276 -62 -59 -6 -65 -8 -40 -15 44 -11 324
-30 365 -24 58 8 326 5 470 -5 74 -5 173 -12 220 -15 77 -6 210 -32 435 -86
92 -22 292 -26 328 -8 12 7 58 35 102 64 123 80 115 77 208 65 45 -6 113 -22
150 -36 46 -16 102 -26 170 -31 l102 -6 -45 -20 c-114 -51 -248 -97 -281 -97
-20 0 -79 -11 -130 -24 -52 -13 -114 -27 -139 -31 -25 -5 -40 -10 -33 -12 7
-2 50 3 96 11 109 21 127 19 52 -5 -228 -72 -600 -141 -840 -154 -144 -9 -493
-8 -537 0 -22 4 -38 3 -38 -2 0 -5 6 -10 13 -10 179 -12 446 -19 561 -15 147
5 148 5 137 -16 -6 -11 -32 -39 -58 -62 -27 -24 -39 -38 -28 -32 24 13 73 59
100 94 18 24 29 27 105 33 47 3 101 8 120 11 77 11 269 46 329 60 35 8 65 13
67 11 2 -2 -15 -28 -37 -57 -23 -30 -50 -72 -61 -93 -32 -63 -74 -76 -258 -79
-85 -1 -133 -3 -107 -5 44 -4 47 -6 35 -21 -12 -15 -11 -16 5 -3 12 10 43 13
107 12 49 -1 108 3 131 9 22 6 42 10 44 8 2 -2 -18 -41 -43 -87 -58 -104 -146
-201 -215 -236 -37 -19 -43 -25 -22 -20 40 9 111 55 155 100 34 36 35 36 42
13 5 -20 6 -19 7 9 1 19 20 62 50 110 26 43 69 112 95 155 49 81 120 165 166
198 38 27 239 86 317 94 78 7 122 25 188 76 65 50 109 68 182 75 32 4 87 12
123 20 141 31 358 45 439 29 28 -6 24 -9 -56 -36 -99 -33 -236 -102 -307 -154
l-49 -36 -156 -2 c-137 -3 -167 -6 -245 -30 -48 -14 -100 -33 -115 -42 -14 -8
-17 -12 -6 -8 138 49 183 57 333 62 83 2 152 0 152 -5 0 -15 -223 -237 -284
-282 -57 -42 -142 -79 -191 -83 -25 -2 -36 -18 -12 -18 30 0 152 40 176 57 14
11 37 26 50 33 l24 12 -20 -28 c-11 -16 -23 -36 -27 -44 -4 -8 1 -4 10 10 26
38 240 246 320 310 74 59 238 150 250 138 10 -11 -65 -195 -94 -230 -15 -18
-21 -29 -14 -24 18 11 15 1 -28 -92 -76 -162 -172 -305 -299 -447 -36 -40 -32
-37 23 15 70 67 179 200 217 265 22 37 23 37 32 14 5 -13 7 -76 4 -139 -4 -93
-10 -129 -31 -185 -15 -38 -22 -65 -17 -60 6 6 23 44 37 85 24 67 27 91 29
226 l2 151 38 67 c21 37 70 140 111 229 l73 161 43 13 c66 20 263 52 358 58
227 14 256 15 225 4 -131 -44 -277 -74 -390 -79 -103 -5 -110 -6 -113 -26 -2
-15 4 -23 20 -28 36 -9 238 -7 299 3 30 6 95 15 144 21 110 14 140 25 185 66
l36 32 72 -11 c40 -6 72 -14 72 -18 0 -13 -89 -88 -127 -107 -59 -30 -164 -60
-258 -73 -47 -7 -83 -14 -81 -17 7 -6 165 16 232 34 93 24 160 59 217 113 l54
51 96 0 c52 0 130 7 173 15 43 8 79 13 81 11 2 -1 -35 -52 -82 -113 l-84 -110
-63 -16 c-35 -9 -146 -30 -248 -47 -210 -35 -316 -64 -438 -121 -94 -43 -142
-49 -212 -24 -23 8 -48 15 -54 15 -18 -1 55 -30 109 -44 l50 -13 -45 -29 c-25
-16 -80 -55 -122 -86 -41 -32 -80 -58 -84 -59 -5 0 -20 -14 -34 -32 -21 -27
-13 -23 57 26 46 32 87 55 93 52 5 -3 10 -1 10 5 0 30 239 156 359 189 l73 20
-7 -26 c-14 -56 -76 -132 -186 -227 -142 -122 -168 -151 -236 -253 -57 -87
-99 -127 -146 -138 -15 -4 -26 -10 -23 -12 9 -9 76 19 105 43 16 13 55 60 87
104 40 56 60 77 66 68 5 -9 8 -7 8 6 0 23 62 82 139 134 30 20 84 64 120 99
36 34 68 59 72 55 16 -17 61 -147 69 -200 l9 -57 -4 66 c-2 38 -16 99 -33 145
l-29 79 24 50 c12 28 23 55 23 62 0 13 33 19 185 33 61 6 136 13 169 16 47 5
57 3 50 -8 -4 -7 -35 -53 -68 -103 -62 -93 -234 -378 -320 -530 -26 -48 -53
-88 -60 -90 -6 -1 -60 -8 -121 -15 -60 -7 -119 -17 -130 -21 -17 -8 -16 -9 6
-4 50 9 229 18 229 11 0 -18 -97 -131 -144 -168 -124 -99 -249 -132 -541 -143
-93 -3 -201 -9 -240 -14 -51 -6 -83 -4 -120 6 -66 19 -259 116 -309 156 -22
17 -36 25 -32 19 9 -15 1 -15 -56 3 -26 7 -87 16 -135 19 l-88 5 91 -13 c122
-18 181 -38 296 -102 53 -30 125 -67 159 -82 l63 -29 -64 -12 c-158 -29 -428
-119 -559 -186 -29 -14 -59 -24 -66 -21 -7 2 -16 -2 -19 -9 -3 -8 -41 -32 -86
-54 -81 -40 -131 -71 -116 -71 4 0 40 15 80 34 39 19 87 41 106 49 19 9 58 25
85 37 70 31 247 92 252 87 2 -2 -16 -31 -40 -63 -53 -73 -67 -98 -33 -61 14
15 30 27 36 27 5 0 10 6 10 14 0 7 18 34 40 58 43 50 75 61 260 93 218 38 664
44 615 9 -10 -8 -15 -14 -11 -14 4 0 20 8 34 19 18 12 50 20 94 23 l67 4 -68
-71 c-120 -125 -186 -248 -206 -387 -4 -27 -10 -48 -14 -48 -3 0 -49 -5 -101
-10 -112 -12 -191 -32 -280 -72 -70 -31 -260 -137 -260 -145 0 -3 30 12 68 33
172 97 291 143 407 158 116 15 153 17 159 8 11 -19 -34 -119 -75 -165 -55 -64
-111 -102 -286 -198 -143 -79 -267 -159 -258 -167 2 -2 25 12 51 32 26 20 115
71 198 113 151 76 232 124 273 162 12 11 27 22 34 23 20 5 88 147 105 223 49
209 95 295 221 415 80 76 143 130 153 130 4 0 4 -20 -1 -45 -5 -25 -8 -121 -7
-213 2 -114 -2 -176 -10 -196 -7 -16 -10 -31 -8 -33 3 -3 12 19 20 48 11 37
16 95 16 200 0 82 5 171 11 199 9 44 15 52 45 65 81 34 192 127 274 230 26 33
98 139 160 235 131 204 244 364 248 352 4 -13 -56 -178 -95 -260 -19 -41 -32
-76 -29 -79 6 -7 47 74 86 175 24 59 36 79 43 70 6 -9 7 -7 2 7 -3 10 4 52 16
91 22 73 30 85 224 332 22 28 43 51 47 51 17 2 -1 -199 -27 -294 -56 -210
-106 -307 -290 -570 -93 -132 -177 -250 -187 -261 -30 -33 -79 -143 -89 -199
-4 -28 -5 -81 0 -120 8 -70 8 -70 8 36 0 97 2 110 32 170 24 50 313 464 350
502 5 5 -11 -45 -34 -110 -90 -248 -107 -466 -48 -616 21 -51 26 -42 9 15 -15
48 -22 142 -18 247 2 51 5 62 17 58 11 -5 12 -1 5 17 -14 38 48 203 175 466
171 357 208 478 204 676 l-2 108 47 53 c34 38 54 53 73 53 26 0 27 -4 7 -67
-3 -11 0 -9 9 6 14 23 14 23 20 -15 12 -70 7 -261 -8 -340 -23 -123 -39 -163
-161 -414 -138 -284 -157 -346 -156 -515 0 -144 26 -246 99 -393 l47 -92 -11
-78 c-16 -110 -52 -212 -77 -223 -12 -5 -59 -18 -106 -30 -110 -27 -234 -66
-287 -90 -24 -10 -46 -19 -51 -19 -35 0 -314 -191 -339 -233 -4 -7 18 8 48 33
127 106 227 163 386 219 126 45 331 97 341 87 9 -9 -42 -106 -147 -281 -164
-274 -216 -384 -241 -512 -6 -32 -13 -69 -16 -81 -3 -15 -1 -21 6 -17 5 3 10
16 10 29 0 89 133 342 287 545 l33 44 0 -68 c0 -91 28 -193 91 -330 5 -11 18
-47 29 -80 15 -48 18 -52 13 -20 -3 22 -17 69 -30 105 -79 206 -77 198 -78
320 l0 115 62 97 c35 53 71 113 80 133 9 19 20 35 25 35 4 0 8 7 8 16 0 10 10
43 21 76 l22 59 18 -31 c38 -62 97 -188 127 -270 60 -165 112 -433 112 -580 0
-55 -4 -66 -57 -148 -54 -83 -91 -146 -93 -157 -1 -3 -13 -31 -27 -62 -26 -60
-76 -221 -87 -283 -8 -49 5 -11 38 106 14 51 44 132 67 180 41 89 142 254 155
254 11 0 -4 -262 -21 -390 -9 -63 -25 -169 -37 -235 l-20 -120 -57 -60 -56
-60 53 50 c28 27 52 47 52 45 0 -14 -33 -171 -59 -287 -17 -72 -31 -139 -30
-150 2 -41 152 533 180 689 7 38 15 66 17 63 3 -3 14 -28 24 -57 22 -64 109
-208 125 -208 6 0 20 -10 30 -23 10 -13 56 -56 103 -97 47 -41 76 -63 65 -50
-11 13 -40 41 -65 64 -83 74 -165 163 -188 205 -21 36 -21 40 -5 34 12 -4 8 2
-9 18 -19 16 -34 48 -50 102 l-22 77 18 143 c25 194 31 408 17 561 -7 70 -14
135 -17 144 -5 13 -2 13 11 -3 19 -21 18 -19 -6 35 -9 19 -27 78 -39 130 -13
52 -34 126 -47 163 -14 38 -23 71 -20 73 2 2 31 -9 63 -26 83 -41 166 -119
281 -263 53 -67 119 -149 147 -181 l51 -59 1 -286 c1 -174 6 -298 13 -316 9
-25 9 -22 4 25 -9 87 -5 324 7 328 6 2 7 9 3 15 -10 16 -14 207 -4 207 4 0 23
-16 42 -36 73 -77 452 -364 465 -352 1 2 -27 24 -64 50 -37 25 -80 57 -97 71
-73 61 -134 110 -180 146 -44 33 -97 89 -221 231 -45 51 -155 202 -151 206 2
2 28 -4 58 -15 30 -10 100 -26 157 -35 137 -23 205 -41 266 -72 63 -31 88 -54
127 -116 34 -53 50 -66 22 -17 -59 102 -154 165 -294 195 -43 10 -79 20 -79
23 0 3 -21 7 -48 8 -26 1 -84 13 -130 28 -79 25 -88 31 -185 124 -111 105
-150 132 -235 167 l-56 23 -93 183 c-51 101 -92 187 -93 192 0 6 15 -3 33 -20
19 -17 16 -11 -10 16 -33 36 -46 61 -62 120 -27 103 -35 194 -21 268 12 68 50
176 58 167 3 -3 13 -27 23 -55 10 -27 33 -76 52 -107 20 -32 56 -96 81 -143
25 -47 46 -80 46 -75 0 11 -26 63 -112 226 -33 61 -59 126 -63 153 -9 57 -6
63 101 252 40 72 83 152 94 178 l21 47 41 -63 c41 -64 109 -158 140 -191 14
-17 16 -38 11 -170 -9 -253 25 -424 117 -590 53 -97 51 -79 -5 33 -65 128 -85
216 -92 391 -3 80 -2 177 2 214 l7 67 28 -33 c46 -55 118 -180 141 -244 12
-33 24 -89 29 -125 l7 -65 2 70 c2 134 -46 255 -192 480 -47 72 -81 131 -77
133 16 6 138 -76 189 -127 29 -30 49 -46 43 -35 -17 32 -114 119 -167 149 -96
55 -134 105 -158 211 -11 47 -11 68 1 123 7 36 16 111 20 166 l7 99 20 -29
c10 -17 47 -84 82 -150 34 -66 63 -117 63 -113 0 17 -77 181 -137 288 -17 30
-34 76 -38 103 -7 46 -7 47 19 47 14 0 35 -9 46 -20 27 -27 77 -129 140 -285
98 -241 157 -337 268 -435 66 -58 87 -96 120 -216 18 -63 18 -74 6 -104 -8
-18 -12 -35 -10 -37 2 -3 8 6 12 19 l8 23 7 -25 c4 -14 8 -50 9 -80 1 -30 6
-68 10 -85 13 -50 0 153 -16 243 -8 46 -24 105 -34 132 l-19 48 93 -43 c52
-24 156 -62 231 -84 156 -45 183 -64 236 -161 36 -67 53 -125 74 -250 20 -128
57 -280 67 -280 4 0 8 -6 8 -14 0 -7 25 -51 56 -97 77 -116 113 -191 130 -268
l14 -66 -5 57 c-6 70 -33 145 -80 218 -46 74 -94 166 -111 212 -15 43 -47 248
-40 255 3 3 20 -12 38 -33 44 -50 48 -53 99 -94 24 -19 75 -66 113 -104 37
-38 63 -60 58 -50 -6 11 -33 41 -61 68 -37 36 -47 52 -38 59 9 6 8 8 -3 5 -8
-3 -23 3 -34 11 -111 90 -178 179 -197 265 -7 33 -29 92 -50 133 -20 40 -36
73 -35 73 1 0 62 -20 136 -44 164 -53 218 -74 338 -134 75 -37 97 -53 112 -82
11 -19 19 -31 20 -27 0 5 -5 17 -10 28 -6 10 -8 19 -4 19 21 0 289 -177 321
-211 43 -48 131 -258 117 -280 -3 -5 -1 -9 3 -9 4 0 19 -30 32 -66 13 -36 25
-63 27 -61 6 5 -91 306 -113 350 -15 29 -12 34 9 14 7 -6 56 -49 108 -94 98
-84 220 -206 279 -280 60 -75 47 -37 -15 44 -128 168 -411 433 -640 599 l-29
21 95 -4 c62 -3 126 0 184 11 84 15 91 15 130 -3 23 -10 84 -51 136 -90 52
-40 115 -83 140 -96 54 -28 155 -58 173 -52 6 2 -6 7 -28 11 -66 13 -176 69
-242 124 -34 29 -87 70 -118 91 l-57 40 39 8 c70 15 262 6 348 -15 99 -25 111
-21 18 7 -160 47 -277 52 -449 21 -60 -11 -143 -20 -184 -20 l-74 0 98 65
c116 77 114 86 -4 15 -127 -77 -132 -79 -225 -63 -83 14 -93 18 -235 95 -123
67 -235 111 -504 199 -355 117 -480 192 -564 338 -43 74 -61 118 -45 108 6 -4
75 -13 154 -21 202 -22 222 -30 359 -150 66 -58 250 -171 233 -143 -4 6 2 8
18 4 111 -31 282 -32 459 -4 71 11 63 12 -135 12 -230 0 -277 7 -383 57 -45
21 -92 57 -164 126 l-101 97 104 7 c57 4 124 14 149 23 40 13 41 14 10 9 -190
-28 -264 -27 -355 6 -27 9 -84 23 -125 30 -41 7 -99 16 -129 21 -29 5 -76 19
-103 31 l-50 23 -43 123 -43 122 29 0 c16 0 29 3 29 6 0 3 -21 25 -47 49 -27
25 -42 44 -35 45 7 0 54 -25 104 -55 50 -30 93 -53 96 -50 2 2 -8 19 -23 37
l-28 33 48 3 c36 2 55 -2 74 -16 56 -41 89 -52 161 -52 65 0 77 -3 132 -37 33
-20 65 -38 72 -40 6 -1 36 -9 66 -17 30 -9 66 -15 80 -15 14 0 -3 7 -37 14
-59 13 -198 73 -189 82 2 2 41 -6 87 -18 68 -18 110 -22 219 -21 129 1 140 -1
237 -34 130 -44 150 -43 48 1 -109 48 -134 54 -281 65 -130 10 -296 52 -277
70 13 13 150 13 238 1 44 -6 137 -11 207 -10 92 2 131 -1 143 -11 13 -11 14
-10 9 4 -5 14 4 16 70 16 46 0 91 -6 113 -15 60 -25 237 -207 310 -318 35 -55
67 -106 71 -115 3 -10 15 -26 25 -37 19 -20 19 -20 4 10 -8 17 -36 65 -61 108
-26 43 -41 75 -34 71 7 -4 38 -24 68 -44 75 -50 235 -135 312 -166 130 -53
322 -123 325 -120 2 2 -11 9 -29 17 -18 7 -98 44 -178 82 -118 56 -141 71
-125 77 16 7 13 9 -16 9 -47 1 -184 83 -303 182 -84 70 -169 161 -135 146 73
-32 190 -77 214 -82 17 -3 1 6 -35 20 -88 35 -170 74 -170 81 0 4 80 4 178 1
140 -4 190 -2 240 11 l63 15 142 -48 c112 -38 155 -48 203 -48 l62 0 23 -48
c12 -27 24 -47 26 -45 3 2 -2 17 -10 33 -32 63 -31 70 13 93 64 33 93 29 148
-17 26 -22 69 -66 96 -99 50 -61 146 -244 146 -279 0 -11 -13 -52 -30 -90 -16
-39 -30 -88 -30 -111 0 -39 27 -150 35 -142 2 2 -3 26 -11 53 -9 29 -13 67
-10 92 5 39 54 153 66 153 3 0 19 -28 35 -62 18 -37 55 -88 93 -126 34 -35 62
-61 62 -57 0 3 13 -1 30 -10 16 -8 35 -15 42 -15 7 0 -6 9 -29 20 -51 23 -121
91 -158 153 -30 52 -115 272 -115 300 0 9 -4 17 -9 17 -5 0 -12 8 -15 18 -3 9
-22 41 -41 71 -20 30 -34 55 -33 56 2 2 37 -17 78 -42 165 -98 377 -189 515
-220 97 -22 323 -22 385 0 25 9 34 14 20 11 -14 -3 -86 -8 -160 -10 -116 -3
-147 0 -225 20 -165 43 -312 113 -557 266 -62 38 -108 71 -103 71 49 6 271
-29 363 -57 14 -5 15 -4 2 4 -29 19 -255 72 -348 81 -63 7 -101 16 -120 29
-15 11 -66 40 -114 65 l-86 45 151 7 c84 4 217 8 297 8 126 1 152 -2 200 -20
82 -32 210 -70 255 -77 45 -7 751 34 830 48 11 2 100 4 198 5 110 1 177 5 177
11 0 6 -10 10 -23 10 -30 0 -193 47 -231 67 -24 12 -65 15 -225 12 -108 -1
-315 -2 -461 -2 l-265 0 -95 39 -95 39 49 3 c27 2 108 -4 180 -13 72 -9 214
-18 316 -20 l185 -4 -155 14 c-85 8 -225 26 -310 40 -123 20 -187 25 -310 24
-85 -1 -184 1 -220 4 -36 4 -173 9 -304 12 -132 4 -242 7 -245 7 -21 5 -172
-16 -201 -27 -26 -9 -77 -11 -195 -8 -126 4 -175 2 -228 -11 -38 -9 -109 -16
-158 -16 -77 0 -97 4 -142 27 -50 25 -64 27 -302 39 -137 7 -270 18 -295 24
-25 7 -110 16 -190 21 -212 13 -335 31 -359 53 -44 40 -110 210 -126 324 -7
49 -5 56 22 90 16 20 37 50 47 67 35 55 113 123 177 156 44 22 97 37 171 50
59 10 139 29 178 43 106 39 236 37 374 -5 149 -45 182 -64 276 -160 47 -48
100 -95 119 -104 23 -11 90 -23 190 -32 102 -10 170 -21 196 -33 202 -92 242
-104 311 -97 l52 5 6 -42 c9 -55 38 -101 78 -122 35 -19 188 -35 188 -21 0 5
-14 36 -32 68 -35 67 -81 117 -115 125 -35 9 -28 18 30 39 28 10 68 26 88 36
37 18 122 85 127 100 7 18 -25 8 -59 -17 -106 -81 -369 -144 -445 -107 -11 5
-72 35 -136 67 -112 55 -123 59 -270 80 -84 13 -163 28 -175 34 -21 12 -93 93
-93 106 0 3 32 6 70 6 186 0 443 90 708 248 57 34 106 62 108 62 2 0 50 20
107 44 213 91 443 151 617 161 120 7 150 18 150 56 0 39 -36 49 -185 49 -113
0 -165 -5 -268 -26 -70 -15 -130 -24 -133 -21 -10 9 20 46 123 156 244 259
241 257 455 342 133 52 180 80 250 145 l57 54 74 0 c138 0 232 -68 316 -231
23 -46 53 -98 66 -114 12 -17 38 -62 58 -102 43 -84 81 -116 141 -116 48 0
124 31 154 64 36 38 25 39 -35 3 -45 -27 -67 -34 -108 -34 -62 0 -81 16 -121
105 -15 33 -39 78 -54 100 -14 22 -48 84 -74 139 -74 153 -177 240 -301 253
l-52 6 36 61 c67 110 100 234 101 371 0 44 5 100 11 125 6 25 11 75 10 112 -1
69 16 129 50 179 18 25 59 46 59 29 0 -4 -12 -11 -26 -14 -24 -6 -25 -10 -19
-43 11 -61 51 -139 96 -187 59 -65 115 -80 274 -74 67 3 129 9 138 14 15 9 10
21 -45 104 -75 115 -143 184 -206 212 -62 28 -244 28 -274 1 -39 -35 -72 -124
-79 -213 -39 -465 -64 -540 -243 -723 -85 -87 -121 -108 -274 -163 -233 -84
-245 -93 -492 -349 -81 -84 -136 -151 -157 -190 -32 -60 -32 -60 -112 -87 -44
-16 -149 -61 -233 -103 -160 -78 -340 -144 -468 -171 -46 -10 -120 -17 -190
-16 -122 0 -138 4 -368 83 l-92 32 34 36 c57 59 106 122 127 164 l21 39 66 -7
c37 -3 84 -11 106 -16 21 -6 75 -8 120 -5 44 3 87 5 94 5 6 1 12 6 12 11 0 6
-33 10 -77 10 -43 0 -96 5 -118 11 -104 27 -187 41 -207 35 -13 -3 -41 -31
-63 -61 -54 -77 -146 -162 -199 -185 -35 -16 -64 -20 -137 -18 -66 1 -112 -4
-154 -16 -33 -10 -89 -20 -125 -22 -159 -8 -295 -47 -368 -104 -14 -11 -26
-19 -28 -17 -10 9 111 215 174 299 26 35 63 87 81 116 70 111 254 249 361 272
79 17 330 7 415 -16 50 -13 90 -15 245 -9 267 10 339 23 547 101 177 65 205
79 357 167 43 25 108 58 145 73 158 65 305 186 462 381 49 62 60 81 57 107 -2
26 -8 32 -32 34 -25 3 -41 -10 -135 -109 -98 -105 -224 -209 -294 -245 -16 -9
-55 -22 -86 -30 -31 -8 -126 -48 -211 -89 -85 -41 -186 -84 -225 -95 -38 -12
-104 -32 -145 -46 -77 -24 -208 -48 -235 -42 -9 2 23 42 93 113 173 178 175
181 278 475 47 134 94 234 155 327 69 107 79 178 22 171 -21 -2 -42 -24 -95
-98 -82 -113 -146 -237 -221 -422 -74 -181 -117 -247 -188 -284 -15 -7 -38
-26 -51 -42 -31 -37 -181 -167 -231 -200 -35 -24 -41 -25 -70 -13 -59 24 -508
54 -597 40 -165 -27 -379 -106 -485 -179 -25 -18 -49 -30 -51 -27 -3 3 34 63
81 133 48 71 105 160 127 199 39 66 72 112 266 368 45 59 93 129 106 155 39
77 165 167 325 234 219 91 514 303 682 488 108 120 102 118 350 130 116 5 218
6 226 1 12 -6 9 -11 -13 -26 -53 -34 -116 -107 -141 -162 -21 -45 -25 -65 -20
-108 7 -65 27 -135 40 -135 30 0 126 55 152 87 39 50 52 93 60 203 l7 95 115
2 c62 2 138 9 169 17 60 16 134 59 178 105 l29 30 36 -44 c111 -134 235 -176
374 -126 95 33 324 178 307 193 -24 22 -139 92 -195 120 -142 71 -231 87 -309
54 -22 -9 -41 -15 -43 -13 -7 7 86 78 122 93 19 8 71 23 114 33 43 10 88 24
100 30 25 14 29 36 4 26 -10 -4 -61 -16 -113 -26 -148 -31 -176 -49 -352 -223
-195 -191 -209 -199 -373 -204 -118 -4 -121 -4 -179 27 l-58 31 -214 0 c-118
0 -214 4 -214 9 0 4 22 55 48 112 27 57 62 142 77 188 15 47 41 105 56 129 15
24 31 58 35 76 7 34 54 130 78 161 9 11 3 -9 -13 -45 -49 -113 -49 -114 13
-149 82 -47 173 -67 241 -52 83 19 168 86 274 215 86 107 113 149 98 158 -28
15 -188 38 -277 39 -143 2 -206 -21 -283 -105 -25 -27 -25 -25 5 17 44 63 58
89 52 99 -13 21 -37 1 -105 -84 -90 -113 -107 -139 -132 -203 -10 -27 -34 -75
-52 -105 -18 -30 -45 -90 -60 -133 -26 -74 -135 -290 -178 -351 -12 -17 -48
-56 -81 -89 -201 -199 -446 -360 -681 -447 -61 -22 -145 -61 -188 -86 -44 -25
-81 -43 -83 -41 -6 6 -100 217 -131 292 -13 33 -43 103 -67 155 -88 192 -132
443 -106 604 19 113 87 264 149 328 9 9 32 38 51 64 19 26 53 64 74 83 21 20
57 56 80 80 104 111 227 210 346 280 98 57 140 88 140 103 0 19 -34 37 -67 38
-63 0 -335 -165 -443 -268 -25 -24 -82 -78 -128 -120 -85 -76 -237 -264 -274
-337 -28 -55 -65 -166 -73 -219 l-7 -45 -92 82 c-50 46 -114 96 -143 112 -36
21 -60 44 -82 80 -17 28 -47 67 -67 86 -49 47 -64 79 -64 138 0 53 -12 70 -35
51 -10 -9 -15 -33 -15 -77 0 -70 8 -90 52 -141 16 -19 42 -62 59 -98 20 -42
45 -76 76 -101 104 -86 158 -142 198 -203 74 -113 94 -162 110 -270 8 -56 20
-111 26 -122 6 -12 21 -57 34 -102 13 -45 36 -115 53 -156 37 -92 72 -182 123
-320 31 -82 37 -110 30 -127 -8 -18 -159 -205 -180 -223 -36 -31 -221 -283
-221 -301 0 -4 -51 -75 -113 -156 -71 -93 -160 -194 -241 -273 -70 -69 -149
-152 -175 -186 -25 -33 -50 -60 -56 -60 -5 0 -21 17 -35 37 -14 20 -109 123
-211 228 -138 142 -201 199 -240 220 -49 25 -58 35 -94 105 -36 70 -40 88 -44
163 -5 128 -3 131 204 403 47 61 319 338 399 407 47 40 48 82 3 94 -35 9 -103
-31 -194 -114 -32 -29 -89 -77 -128 -106 -79 -61 -93 -75 -263 -261 -92 -100
-132 -153 -157 -205 -32 -66 -59 -171 -48 -187 10 -17 -15 -7 -33 13 -10 11
-39 36 -64 54 -50 36 -166 197 -218 300 -67 134 -122 365 -122 513 0 114 48
239 139 357 55 73 38 54 201 221 75 77 191 206 258 288 98 121 132 171 176
262 49 102 107 200 222 377 40 62 116 127 214 185 44 26 49 27 228 29 109 1
198 7 219 14 20 6 61 35 92 63 31 28 76 66 101 83 55 37 79 64 112 123 14 25
47 68 72 95 44 48 60 95 33 95 -16 0 -136 -123 -168 -173 -14 -22 -50 -53 -84
-74 -33 -20 -86 -57 -117 -81 l-58 -45 -147 9 c-226 14 -271 11 -336 -19 -66
-30 -132 -73 -203 -133 l-52 -44 -24 38 c-14 20 -30 53 -36 72 -47 153 -63
486 -28 590 50 148 236 450 331 537 47 44 55 56 55 87 0 45 -17 47 -90 8z
m-1270 -4576 c0 -3 -4 -8 -10 -11 -5 -3 -10 -1 -10 4 0 6 5 11 10 11 6 0 10
-2 10 -4z m4140 -1785 c25 -26 53 -62 63 -80 l18 -31 -28 0 c-39 0 -96 17
-174 50 -36 16 -78 34 -94 40 l-28 11 38 26 c84 57 141 53 205 -16z m101 -12
c49 -23 89 -45 89 -49 0 -8 -89 -44 -95 -39 -16 17 -94 129 -89 129 3 0 46
-19 95 -41z"/>
<path d="M7102 12054 c-27 -50 -56 -192 -56 -274 -1 -75 2 -90 26 -132 29 -48
102 -118 124 -118 7 0 29 33 49 74 31 61 37 85 37 135 0 54 -6 74 -47 155 -25
50 -63 112 -84 136 -36 42 -39 43 -49 24z"/>
<path d="M9663 12061 c-75 -19 -186 -113 -236 -199 l-17 -31 47 -63 c59 -77
153 -144 219 -154 95 -14 220 41 387 169 91 70 93 63 -40 153 -147 98 -280
145 -360 125z"/>
<path d="M7584 11928 c-100 -75 -198 -179 -231 -246 -25 -52 -28 -66 -27 -157
1 -70 7 -116 20 -155 l19 -55 40 3 c106 8 220 106 256 220 32 101 35 442 4
442 -6 0 -43 -23 -81 -52z"/>
<path d="M10840 11869 c-225 -52 -306 -136 -326 -337 l-6 -69 32 -7 c96 -19
198 5 252 60 20 20 52 66 72 103 32 62 96 234 96 260 0 15 -19 13 -120 -10z"/>
<path d="M7974 11688 c-115 -146 -217 -319 -249 -424 -42 -139 1 -305 126
-486 l16 -23 57 39 c80 55 159 144 198 223 33 67 33 69 32 203 0 105 -5 154
-23 220 -30 115 -93 310 -101 310 -4 0 -29 -28 -56 -62z"/>
<path d="M10199 11688 c-40 -78 -69 -179 -69 -240 0 -70 21 -116 78 -172 l40
-38 36 48 c80 109 74 202 -27 402 -12 23 -25 42 -29 42 -4 0 -17 -19 -29 -42z"/>
<path d="M11187 11467 c-162 -203 -176 -231 -177 -337 0 -66 4 -85 35 -148 19
-40 40 -72 48 -72 20 0 87 51 121 91 56 65 69 112 64 218 -6 101 -45 271 -63
271 -5 -1 -18 -11 -28 -23z"/>
<path d="M6850 11321 c-36 -9 -85 -27 -110 -40 -82 -42 -210 -132 -204 -143
14 -22 191 -129 264 -159 136 -57 237 -49 337 27 30 23 113 125 113 139 0 3
-16 27 -36 53 -96 127 -207 165 -364 123z"/>
<path d="M10454 11276 c-24 -24 -44 -51 -44 -60 0 -9 19 -29 42 -46 61 -44
116 -42 194 8 32 22 67 48 77 59 17 20 16 21 -53 52 -49 22 -86 31 -121 31
-48 0 -55 -3 -95 -44z"/>
<path d="M11584 11181 c-45 -20 -100 -80 -135 -146 -23 -44 -23 -44 -4 -66 11
-12 47 -35 80 -50 121 -58 203 -31 349 115 l91 89 -43 19 c-65 29 -190 58
-246 58 -28 0 -69 -9 -92 -19z"/>
<path d="M12223 10958 c-112 -202 -133 -323 -76 -439 18 -35 48 -80 67 -98
l36 -35 36 35 c20 18 50 61 67 94 42 83 43 166 3 285 -30 89 -79 194 -95 204
-5 3 -22 -18 -38 -46z"/>
<path d="M12625 10976 c-64 -43 -152 -136 -170 -181 -8 -19 -15 -57 -15 -84 0
-62 20 -152 36 -158 16 -6 114 40 141 66 40 39 63 97 71 183 8 89 5 208 -7
208 -3 0 -29 -15 -56 -34z"/>
<path d="M10405 10849 c-122 -81 -218 -178 -258 -259 -30 -60 -32 -72 -32
-165 0 -68 6 -119 19 -158 l18 -58 41 6 c39 7 78 23 164 69 79 42 126 139 149
306 18 136 19 320 2 320 -7 0 -53 -28 -103 -61z"/>
<path d="M9886 10833 c-39 -93 -45 -168 -17 -224 29 -57 66 -86 87 -68 20 16
50 76 58 114 3 17 0 54 -8 83 -15 54 -66 154 -82 159 -5 1 -22 -27 -38 -64z"/>
<path d="M11254 10734 c-69 -41 -100 -69 -143 -129 l-32 -44 38 -43 c59 -65
94 -95 148 -124 65 -36 143 -37 237 -2 67 25 211 110 271 159 l31 26 -50 36
c-63 47 -188 113 -261 138 -32 11 -83 19 -118 19 -52 0 -70 -5 -121 -36z"/>
<path d="M8581 10698 c-35 -83 -71 -204 -80 -272 -12 -86 -1 -147 39 -209 28
-45 134 -137 157 -137 18 0 70 72 100 137 52 113 41 197 -43 333 -49 80 -134
190 -147 190 -4 0 -16 -19 -26 -42z"/>
<path d="M5590 10704 c0 -1 13 -31 29 -66 47 -105 84 -133 167 -126 39 3 39 3
36 43 -5 59 -31 97 -82 122 -36 17 -150 38 -150 27z"/>
<path d="M6660 10499 c-102 -69 -237 -195 -265 -248 -31 -60 -45 -159 -34
-236 14 -100 37 -165 58 -165 29 0 125 36 167 63 91 57 135 126 159 248 18 97
28 280 18 348 l-8 54 -95 -64z"/>
<path d="M13524 10448 c-68 -45 -143 -125 -167 -178 -11 -24 -20 -67 -20 -95
-1 -60 21 -145 39 -152 18 -7 116 40 144 68 49 51 63 105 68 252 3 84 1 137
-5 137 -5 0 -32 -15 -59 -32z"/>
<path d="M9622 10332 c-23 -7 -23 -9 36 -97 32 -50 70 -99 83 -110 57 -48 130
-58 207 -28 41 15 43 18 38 47 -13 67 -56 135 -102 162 -37 22 -59 26 -141 30
-54 2 -109 0 -121 -4z"/>
<path d="M7649 10305 c-90 -24 -231 -84 -243 -104 -15 -23 188 -188 293 -239
46 -22 70 -27 131 -27 90 0 154 28 237 104 l52 47 -29 50 c-75 131 -171 195
-290 193 -36 0 -104 -11 -151 -24z"/>
<path d="M5920 10208 c-48 -24 -209 -172 -199 -183 4 -3 39 -17 78 -31 89 -31
185 -41 235 -24 46 15 103 72 128 128 l20 44 -22 23 c-33 35 -104 65 -152 65
-24 0 -63 -10 -88 -22z"/>
<path d="M9155 10182 c-17 -10 -45 -35 -63 -56 l-32 -37 20 -30 c37 -51 86
-82 141 -87 43 -4 60 0 122 32 40 20 85 47 102 61 29 24 29 25 10 40 -11 8
-51 33 -90 55 -58 33 -79 40 -125 40 -36 0 -65 -6 -85 -18z"/>
<path d="M6940 10095 c-15 -40 -40 -191 -40 -244 0 -91 32 -155 106 -211 47
-36 67 -37 86 -7 51 77 61 188 25 269 -22 48 -131 197 -156 213 -6 3 -15 -5
-21 -20z"/>
<path d="M13663 10093 c-18 -10 -42 -31 -54 -47 l-23 -29 43 -39 c35 -30 52
-38 83 -38 39 0 112 32 158 70 l25 20 -25 20 c-30 23 -124 60 -154 60 -12 0
-36 -8 -53 -17z"/>
<path d="M11292 9912 c-124 -211 -156 -299 -150 -421 4 -73 9 -96 38 -153 18
-36 50 -86 71 -110 l37 -43 67 65 c43 42 77 88 98 130 30 60 32 72 32 165 0
83 -6 118 -32 207 -33 108 -90 248 -102 248 -4 0 -30 -40 -59 -88z"/>
<path d="M11745 9844 c-78 -57 -146 -125 -166 -169 -29 -63 -23 -211 11 -248
14 -16 91 14 132 51 67 60 81 105 86 265 2 75 0 137 -4 137 -5 0 -31 -17 -59
-36z"/>
<path d="M7359 9738 c-104 -149 -147 -265 -129 -356 10 -54 45 -131 77 -171
13 -16 25 -22 39 -17 35 11 117 100 142 155 22 49 24 63 19 145 -4 66 -15 122
-42 204 -20 61 -40 112 -45 112 -5 0 -33 -33 -61 -72z"/>
<path d="M9357 9577 c-194 -240 -221 -355 -121 -524 l25 -43 30 16 c123 63
177 190 150 350 -15 88 -51 224 -60 224 -3 -1 -14 -11 -24 -23z"/>
<path d="M9880 9569 c-131 -61 -182 -145 -164 -265 l6 -45 42 7 c104 17 163
88 180 219 14 103 15 115 8 115 -4 0 -36 -14 -72 -31z"/>
<path d="M14029 9528 c-124 -90 -165 -175 -136 -283 13 -46 16 -50 43 -48 42
3 106 52 129 98 15 31 20 66 23 153 3 67 0 112 -5 112 -6 0 -30 -14 -54 -32z"/>
<path d="M6675 9540 c-9 -14 59 -149 109 -217 63 -86 131 -110 242 -82 50 13
53 23 30 100 -39 129 -105 181 -245 194 -31 3 -73 8 -93 10 -20 3 -39 1 -43
-5z"/>
<path d="M5890 9535 c-8 -2 -49 -9 -91 -15 -42 -7 -83 -16 -90 -21 -20 -12 89
-167 186 -265 102 -102 136 -119 240 -119 70 0 89 5 148 33 38 19 71 40 74 47
6 19 -22 103 -55 163 -36 64 -120 145 -168 160 -38 13 -214 25 -244 17z"/>
<path d="M14086 9245 c-43 -43 -23 -85 40 -85 25 0 44 10 76 41 40 38 41 42
23 50 -35 14 -122 10 -139 -6z"/>
<path d="M13238 9079 c-151 -113 -192 -208 -155 -354 16 -62 31 -66 104 -29
100 51 130 117 133 290 2 136 2 144 -7 144 -5 0 -38 -23 -75 -51z"/>
<path d="M9702 9097 c-36 -11 -110 -72 -142 -117 l-21 -29 42 -46 c123 -133
226 -131 435 8 35 23 64 45 64 49 0 14 -152 101 -217 124 -73 25 -109 28 -161
11z"/>
<path d="M10310 9102 c0 -5 9 -42 19 -83 50 -193 110 -259 237 -259 l54 0 0
68 c-1 138 -59 205 -229 261 -71 23 -81 25 -81 13z"/>
<path d="M7779 8953 c-16 -109 -17 -304 -1 -359 24 -84 117 -176 209 -208 l42
-14 27 66 c20 49 28 90 32 154 4 77 2 92 -21 141 -35 77 -92 150 -182 232 -42
39 -80 71 -85 73 -4 2 -14 -37 -21 -85z"/>
<path d="M11751 8969 c-85 -114 -153 -248 -171 -331 -19 -97 21 -209 109 -305
16 -18 35 -33 41 -33 6 0 39 26 72 58 100 95 132 185 109 305 -12 65 -78 237
-114 298 l-23 39 -23 -31z"/>
<path d="M5115 8938 c51 -232 83 -296 168 -339 28 -15 54 -19 100 -17 l62 3 3
43 c5 68 -16 148 -51 194 -35 45 -125 97 -214 123 -68 20 -74 19 -68 -7z"/>
<path d="M12460 8911 c-153 -30 -246 -129 -290 -309 -15 -66 -9 -74 78 -103
136 -45 233 -26 333 68 78 72 242 324 220 337 -17 11 -293 16 -341 7z"/>
<path d="M6850 8769 c-36 -22 -100 -78 -100 -89 0 -9 61 -29 113 -36 35 -5 53
-2 72 10 24 16 65 71 65 88 0 11 -76 48 -97 48 -10 0 -34 -10 -53 -21z"/>
<path d="M13052 8425 c-40 -17 -80 -48 -99 -75 -12 -18 -11 -25 17 -65 41 -59
109 -99 169 -99 66 0 251 63 251 85 0 17 -120 112 -174 139 -65 33 -113 37
-164 15z"/>
<path d="M5355 8401 c-27 -16 -83 -63 -123 -103 l-73 -74 25 -12 c93 -42 248
-57 301 -30 73 39 152 151 127 181 -7 7 -36 26 -66 40 -73 36 -126 35 -191 -2z"/>
<path d="M14135 8182 c-45 -16 -76 -49 -100 -105 l-15 -37 32 -20 c40 -24 110
-26 146 -4 33 20 122 122 122 140 0 6 -6 14 -14 17 -25 10 -150 16 -171 9z"/>
<path d="M13676 8132 c-13 -22 -28 -106 -28 -158 0 -42 7 -75 21 -103 25 -48
106 -130 176 -177 43 -30 50 -32 58 -17 12 20 2 235 -13 290 -15 52 -68 115
-116 138 -49 23 -93 35 -98 27z"/>
<path d="M4977 7934 l-48 -15 30 -38 c50 -63 117 -119 158 -131 32 -10 46 -9
88 8 68 27 75 42 47 96 -41 77 -63 91 -150 93 -48 2 -95 -3 -125 -13z"/>
<path d="M12503 7873 c-46 -99 -66 -177 -59 -231 7 -50 41 -114 79 -150 l24
-23 37 42 c53 62 73 133 57 202 -12 53 -65 174 -92 210 -13 16 -17 11 -46 -50z"/>
<path d="M14505 7891 c-54 -24 -76 -51 -82 -100 l-6 -41 36 0 c42 0 83 41 93
94 11 61 5 68 -41 47z"/>
<path d="M6918 7830 c-21 -4 -62 -23 -91 -43 -67 -44 -174 -143 -165 -152 16
-16 155 -66 215 -76 50 -9 75 -9 105 0 49 15 111 70 145 129 l27 45 -38 33
c-65 56 -129 77 -198 64z"/>
<path d="M7305 7728 c-51 -19 -92 -52 -156 -124 -83 -93 -191 -257 -176 -266
7 -4 37 -10 67 -13 30 -4 66 -9 80 -11 50 -8 186 -5 235 6 123 27 211 126 258
287 18 61 18 60 -69 99 -67 30 -188 42 -239 22z"/>
<path d="M5705 7625 c-5 -2 -22 -6 -37 -9 -45 -10 -99 -66 -135 -141 -34 -72
-78 -203 -70 -211 9 -9 153 29 206 54 30 14 68 40 85 57 37 37 66 122 66 192
0 49 -1 51 -31 57 -33 6 -67 7 -84 1z"/>
<path d="M13410 7560 c-19 -10 -48 -32 -64 -49 l-29 -30 33 -51 c78 -122 162
-138 335 -63 87 38 90 41 63 71 -32 34 -115 95 -165 121 -52 26 -125 27 -173
1z"/>
<path d="M11765 7497 l-27 -22 26 -28 c15 -16 36 -27 52 -27 29 0 94 28 94 41
0 14 -73 59 -97 59 -12 0 -34 -10 -48 -23z"/>
<path d="M12908 7360 c-26 -5 -70 -16 -98 -25 -57 -19 -60 -28 -34 -116 69
-231 191 -308 491 -309 123 0 125 1 104 54 -32 82 -112 212 -176 282 -89 99
-174 132 -287 114z"/>
<path d="M12794 6876 c-41 -18 -64 -52 -64 -94 0 -33 1 -34 32 -28 49 10 68
32 92 114 9 26 -11 29 -60 8z"/>
<path d="M12175 6866 c-38 -17 -60 -41 -80 -89 -25 -60 -21 -75 27 -87 54 -15
102 -5 138 28 28 26 100 137 100 154 0 13 -153 8 -185 -6z"/>
<path d="M6812 6862 c-33 -10 -103 -70 -140 -119 -58 -77 -94 -134 -89 -140
12 -11 164 -23 217 -17 99 12 147 49 189 146 36 83 36 84 -11 106 -47 23 -130
35 -166 24z"/>
<path d="M11240 5800 c6 -11 13 -20 16 -20 2 0 0 9 -6 20 -6 11 -13 20 -16 20
-2 0 0 -9 6 -20z"/>
<path d="M10858 5693 c7 -3 16 -2 19 1 4 3 -2 6 -13 5 -11 0 -14 -3 -6 -6z"/>
<path d="M10975 5470 c-13 -6 -15 -9 -5 -9 8 0 22 4 30 9 18 12 2 12 -25 0z"/>
<path d="M7998 5443 c7 -3 16 -2 19 1 4 3 -2 6 -13 5 -11 0 -14 -3 -6 -6z"/>
<path d="M6058 5353 c6 -2 18 -2 25 0 6 3 1 5 -13 5 -14 0 -19 -2 -12 -5z"/>
<path d="M6000 5340 c-18 -12 -2 -12 25 0 13 6 15 9 5 9 -8 0 -22 -4 -30 -9z"/>
<path d="M5710 5320 c-8 -5 -10 -10 -5 -10 6 0 17 5 25 10 8 5 11 10 5 10 -5
0 -17 -5 -25 -10z"/>
<path d="M6139 5293 l-24 -28 28 24 c15 14 27 26 27 28 0 8 -8 1 -31 -24z"/>
<path d="M6372 5080 c0 -14 2 -19 5 -12 2 6 2 18 0 25 -3 6 -5 1 -5 -13z"/>
<path d="M10990 5086 c0 -2 8 -10 18 -17 15 -13 16 -12 3 4 -13 16 -21 21 -21
13z"/>
<path d="M13190 5021 c0 -5 5 -13 10 -16 6 -3 10 -2 10 4 0 5 -4 13 -10 16 -5
3 -10 2 -10 -4z"/>
<path d="M6340 4980 c-6 -11 -8 -20 -6 -20 3 0 10 9 16 20 6 11 8 20 6 20 -3
0 -10 -9 -16 -20z"/>
<path d="M8845 4870 c-9 -16 -13 -30 -11 -30 3 0 12 14 21 30 9 17 13 30 11
30 -3 0 -12 -13 -21 -30z"/>
<path d="M8105 4860 c-9 -16 -13 -30 -11 -30 3 0 12 14 21 30 9 17 13 30 11
30 -3 0 -12 -13 -21 -30z"/>
<path d="M7560 4840 c-6 -11 -8 -20 -6 -20 3 0 10 9 16 20 6 11 8 20 6 20 -3
0 -10 -9 -16 -20z"/>
<path d="M8029 4753 c-13 -16 -12 -17 4 -4 9 7 17 15 17 17 0 8 -8 3 -21 -13z"/>
<path d="M7070 4646 c0 -2 8 -10 18 -17 15 -13 16 -12 3 4 -13 16 -21 21 -21
13z"/>
<path d="M6713 4623 c9 -2 23 -2 30 0 6 3 -1 5 -18 5 -16 0 -22 -2 -12 -5z"/>
<path d="M6783 4623 c9 -2 23 -2 30 0 6 3 -1 5 -18 5 -16 0 -22 -2 -12 -5z"/>
<path d="M6623 4613 c9 -2 25 -2 35 0 9 3 1 5 -18 5 -19 0 -27 -2 -17 -5z"/>
<path d="M10400 4582 c0 -20 37 -87 57 -102 17 -14 17 -14 1 5 -9 11 -26 41
-37 65 -11 25 -21 39 -21 32z"/>
<path d="M9046 4437 c3 -10 9 -15 12 -12 3 3 0 11 -7 18 -10 9 -11 8 -5 -6z"/>
<path d="M10495 4430 c10 -11 20 -20 23 -20 3 0 -3 9 -13 20 -10 11 -20 20
-23 20 -3 0 3 -9 13 -20z"/>
<path d="M8629 4393 c-13 -16 -12 -17 4 -4 16 13 21 21 13 21 -2 0 -10 -8 -17
-17z"/>
<path d="M11080 4394 c0 -6 7 -19 16 -30 14 -18 14 -18 3 6 -14 31 -19 36 -19
24z"/>
<path d="M11310 4211 c0 -6 4 -13 10 -16 6 -3 7 1 4 9 -7 18 -14 21 -14 7z"/>
<path d="M8691 4104 c0 -11 3 -14 6 -6 3 7 2 16 -1 19 -3 4 -6 -2 -5 -13z"/>
<path d="M11896 4095 c-9 -26 -7 -32 5 -12 6 10 9 21 6 23 -2 3 -7 -2 -11 -11z"/>
<path d="M8671 4057 c-13 -21 -12 -21 5 -5 10 10 16 20 13 22 -3 3 -11 -5 -18
-17z"/>
<path d="M8173 4058 c-15 -20 -25 -38 -20 -38 3 0 12 11 21 25 17 26 16 35 -1
13z"/>
<path d="M6986 4045 c-9 -26 -7 -32 5 -12 6 10 9 21 6 23 -2 3 -7 -2 -11 -11z"/>
<path d="M11881 4034 c0 -11 3 -14 6 -6 3 7 2 16 -1 19 -3 4 -6 -2 -5 -13z"/>
<path d="M6960 3980 c-6 -11 -8 -20 -6 -20 3 0 10 9 16 20 6 11 8 20 6 20 -3
0 -10 -9 -16 -20z"/>
<path d="M11980 3976 c0 -11 30 -66 36 -66 2 0 -3 15 -12 33 -19 36 -24 44
-24 33z"/>
<path d="M8197 3871 c-9 -16 -17 -33 -17 -38 0 -4 9 7 21 26 11 18 18 35 17
37 -2 2 -12 -10 -21 -25z"/>
<path d="M8166 3803 c-6 -14 -5 -15 5 -6 7 7 10 15 7 18 -3 3 -9 -2 -12 -12z"/>
<path d="M11211 3764 c0 -11 3 -14 6 -6 3 7 2 16 -1 19 -3 4 -6 -2 -5 -13z"/>
<path d="M7771 3584 c0 -11 3 -14 6 -6 3 7 2 16 -1 19 -3 4 -6 -2 -5 -13z"/>
<path d="M8741 3504 c0 -11 3 -14 6 -6 3 7 2 16 -1 19 -3 4 -6 -2 -5 -13z"/>
<path d="M8890 3070 c-9 -6 -10 -10 -3 -10 6 0 15 5 18 10 8 12 4 12 -15 0z"/>
<path d="M9281 3023 c-1 -6 -4 -20 -7 -30 -5 -17 -5 -17 6 0 6 10 9 23 6 30
-3 9 -5 9 -5 0z"/>
<path d="M10250 2931 c5 -11 15 -23 21 -27 6 -3 3 5 -6 20 -20 30 -30 35 -15
7z"/>
<path d="M9236 2913 c-6 -14 -5 -15 5 -6 7 7 10 15 7 18 -3 3 -9 -2 -12 -12z"/>
<path d="M9465 2633 l-70 -66 70 58 c39 33 74 62 80 67 6 5 6 8 0 8 -6 -1 -41
-30 -80 -67z"/>
<path d="M9840 2306 c0 -3 14 -12 30 -21 17 -9 30 -13 30 -11 0 3 -13 12 -30
21 -16 9 -30 13 -30 11z"/>
<path d="M9479 2003 l-24 -28 28 24 c25 23 32 31 24 31 -2 0 -14 -12 -28 -27z"/>
</g>
</svg>
